<?xml version="1.0" encoding="utf-8"?>
<!-- Generator: Adobe Illustrator 24.0.1, SVG Export Plug-In . SVG Version: 6.00 Build 0)  -->
<svg version="1.1" id="Layer_1" xmlns="http://www.w3.org/2000/svg" xmlns:xlink="http://www.w3.org/1999/xlink" x="0px" y="0px"
	 viewBox="0 0 210 38.5" style="enable-background:new 0 0 210 38.5;" xml:space="preserve">
<style type="text/css">
	.st0{display:none;fill:#020202;}
</style>
<rect x="-0.4" y="-0.3" class="st0" width="211.1" height="38.5"/>
<g>
	<path d="M206.1,31.9c-0.7-0.1-1.3-0.1-2-0.2c-3.1-0.2-6.3-0.2-9.4,0.1c-0.1,0-0.3,0-0.5,0c0.3-7.5,0.3-15,0-22.5c1.1,0,2.1,0,3.1,0
		c0,6.9,0,13.7,0,20.6c0.1,0,0.1,0,0.2,0c2.7-0.1,5.5-0.1,8.2-0.2c0.1,0,0.2,0,0.3,0C206.1,30.5,206.1,31.2,206.1,31.9z"/>
	<path d="M11.1,13.7c0.7,1.4,1.4,2.9,2.1,4.3c-0.1-0.7-0.3-1.3-0.4-2c-0.3-1.2-0.5-2.3-0.6-3.5c0-2,0.5-3.8,1.5-5.4
		c0.2-0.2,0.3-0.5,0.5-0.8c0.1,0.1,0.2,0.2,0.2,0.3c1.6,2.1,2.1,4.5,1.8,7c-0.2,1.2-0.5,2.4-0.7,3.7c0,0.2-0.1,0.5-0.1,0.8
		c0.3-0.7,0.6-1.5,0.9-2.2c0.3-0.7,0.8-1.4,1.2-2.1c-0.1-0.1-0.3-0.2-0.4-0.3c-0.4-0.3-0.5-0.7-0.3-1.1c0.2-0.4,0.6-0.6,1-0.5
		c0.2,0.1,0.4,0,0.6-0.1c0.3-0.2,0.7-0.4,1.1-0.1c0.5,0.3,0.6,0.7,0.3,1.3c-0.1,0.2-0.1,0.3,0,0.5c0.3,0.5,0.2,0.9-0.2,1.2
		c-0.3,0.3-0.7,0.3-1.2,0c-0.1,0-0.1-0.1-0.2-0.2c-0.2,0.3-0.4,0.5-0.6,0.8c-1,1.9-1.6,3.9-1.8,6.1c-0.1,0.6,0,0.9,0.2,1.2
		c0.1-0.4,0.1-0.8,0.2-1.2c0.3-1.6,0.9-3,1.8-4.3c0.6-1,1.5-1.8,2.5-2.4c0.8-0.4,1.5-0.5,2.4-0.4c1.2,0.2,1.8,1,1.8,2.2
		c0,1.8-0.8,3.3-2.2,4.4c-0.4,0.3-0.8,0.6-1,1.1c-0.2,0.3-0.2,0.7,0,1.1c0.3-0.2,0.7-0.3,1-0.5c0.3,0.5,0.3,1.3-0.3,1.8
		c-0.4,0.4-1,0.6-1.5,0.7c-0.5,0.1-1-0.3-1.2-0.8c-0.2-0.7-0.2-1.4,0-2c0.1-0.5,0.3-0.9,0.5-1.4c0.2-0.4,0.2-0.8-0.1-1.2
		c-0.2-0.3-0.5-0.4-0.9-0.3c-0.4,0.2-0.7,0.3-1,0.6c-0.7,0.6-1.1,1.5-1.3,2.4c-0.1,0.3,0.1,0.5,0.3,0.7c0.1,0.1,0.2,0.1,0.3,0.2
		c0.8,0.7,0.7,1.6-0.2,2.1c-0.5,0.3-1.1,0.5-1.6,0.7c-0.2,0.1-0.3,0.2-0.3,0.4c-0.2,1.2,0.7,2.2,1.9,2c0.4,0,0.4-0.2,0.3-0.5
		c-0.2-0.6,0-1,0.6-1.1c0.5-0.1,1,0.1,1.1,0.7c0.2,0.8-0.5,1.7-1.4,1.8c-0.8,0.1-1.5-0.2-2.1-0.7c-0.1-0.1-0.3-0.2-0.5-0.4
		c0,0.5,0.1,1,0.1,1.4c0.1,0.9-0.1,1.7-1,2.2c-0.6-0.5-1-1.1-1-1.9c0-0.6,0.1-1.1,0.1-1.8c-0.2,0.2-0.4,0.3-0.6,0.4
		c-0.6,0.4-1.2,0.7-1.9,0.6c-0.8-0.1-1.5-0.7-1.5-1.4c0-0.4,0.2-0.7,0.5-0.9c0.3-0.2,0.6-0.3,0.9-0.1c0.4,0.2,0.5,0.5,0.5,0.9
		c-0.1,0.6,0,0.7,0.6,0.7c1.2-0.1,1.8-1.1,1.5-2.2c0-0.1-0.1-0.2-0.2-0.2c-0.3-0.1-0.7-0.2-1-0.4c-0.2-0.1-0.4-0.2-0.7-0.3
		c-0.9-0.6-1-1.6,0-2.2c0.6-0.4,0.6-0.5,0.4-1.1c-0.2-0.7-0.5-1.4-1.1-2c-0.3-0.2-0.6-0.5-0.9-0.6c-0.4-0.2-0.7-0.1-1.1,0.1
		c-0.3,0.3-0.3,0.6-0.2,1c0.1,0.3,0.2,0.5,0.3,0.7c0.3,0.7,0.5,1.4,0.4,2.1c0,0.6-0.2,1.2-0.8,1.5c-0.6,0.3-1.2,0.1-1.7-0.3
		c-0.8-0.6-1.1-1.3-0.7-2.2c0.1,0.1,0.3,0.2,0.4,0.3C6.7,22.9,7,23.1,7.1,23c0.2-0.1,0.2-0.5,0.1-0.7c-0.2-0.5-0.5-0.9-1-1.2
		c-1.4-0.9-2.2-2.3-2.4-3.9c0-0.3,0-0.6,0-1c0.2-1.1,0.8-1.7,1.9-1.8c1.3-0.1,2.5,0.3,3.4,1.2c1.2,1.1,2.1,2.5,2.6,4.1
		c0.3,0.9,0.5,1.8,0.7,2.6c0,0.1,0.1,0.3,0.1,0.4c0,0,0.1,0,0.1,0c0-0.1,0.1-0.3,0.1-0.4c-0.1-2.2-0.5-4.3-1.5-6.2
		c-0.2-0.5-0.6-1-0.9-1.5c-0.2,0.1-0.4,0.2-0.6,0.3c-0.4,0.2-0.7,0.2-1-0.1c-0.3-0.3-0.4-0.6-0.2-1c0.1-0.3,0.1-0.5,0-0.8
		c-0.2-0.4-0.1-0.8,0.2-1.1c0.4-0.3,0.7-0.3,1.1,0c0.2,0.2,0.4,0.2,0.8,0.2c0.5-0.1,0.8,0.1,1,0.6c0.2,0.4,0,0.8-0.4,1.1
		C11.3,13.6,11.2,13.7,11.1,13.7z"/>
	<path d="M156.2,8.8c2.3,0,4.4,0.5,6.3,1.6c2.7,1.4,4.4,3.6,5.1,6.6c0.7,3.1,0.6,6.1-0.9,9c-1.9,3.5-4.9,5.4-8.8,5.9
		c-2.2,0.3-4.4,0.2-6.6-0.5c-4.5-1.5-7.3-5.2-7.5-9.9c-0.1-2.4,0.2-4.7,1.5-6.8c1.9-3.3,4.8-5.1,8.5-5.6
		C154.5,8.9,155.3,8.9,156.2,8.8z M147.1,20.6c0.1,0.9,0.1,1.7,0.2,2.6c1,5.9,6.2,8.7,11.8,6.7c2.4-0.8,3.7-2.7,4.6-5
		c0.9-2.3,0.9-4.6,0.6-7c-0.6-4.1-3.4-7.4-8-7.6c-3.4-0.1-6.1,1.2-7.8,4.2C147.5,16.5,147.2,18.5,147.1,20.6z"/>
	<path d="M103.8,9.3c0.9,0,1.9,0,2.9,0c2.1,0,4.1,0,6.2,0.1c0.6,0,1.2,0.2,1.8,0.4c4,1.4,4.1,6.3,1.7,8.4c-1.3,1.1-2.8,1.8-4.4,2.2
		c-0.2,0-0.4,0.1-0.7,0.2c3,3.7,6,7.4,9,11.1c-0.2,0-0.3,0-0.4,0c-1,0-2,0-3,0c-0.4,0-0.6-0.1-0.8-0.4c-2.5-3.2-5-6.5-7.4-9.7
		c-0.5-0.6-1-1-1.8-0.8c0.1,3.6,0.2,7.2,0.2,10.9c-1.1,0-2.1,0-3.1,0C103.8,24.2,103.8,16.8,103.8,9.3z M106.7,19.2
		c1.1-0.1,2.2-0.1,3.3-0.2c1.5-0.2,2.7-0.8,3.8-1.9c1.3-1.5,1.3-4.9-1.5-5.8c-0.7-0.2-1.4-0.4-2.2-0.4c-1.1-0.1-2.3,0-3.4,0
		C106.7,13.7,106.7,16.4,106.7,19.2z"/>
	<path d="M56.9,31.6c0-0.1,0-0.1,0-0.2c0.3-7.4,0.3-14.7,0-22.1c0.1,0,0.3,0,0.4,0c0.9,0,1.8,0,2.8,0c-0.1,3.1-0.1,6.2-0.2,9.3
		c4.4,0.3,8.7,0.3,13.1,0c0-3.1,0-6.1,0-9.2c1,0,2,0,3,0c0,7.4,0,14.8,0,22.2c-1,0-2,0-3,0c0-0.6,0-1.1,0-1.7
		c0.1-2.8,0.1-5.6,0.2-8.4c0-0.6-0.2-0.8-0.7-0.8c-3.1-0.1-6.1-0.1-9.2-0.2c-1.1,0-2.2,0.1-3.4,0.2c0.1,3.6,0.1,7.2,0.2,10.8
		C59,31.6,57.9,31.6,56.9,31.6z"/>
	<path d="M79.5,31.7c0.9-1.9,1.8-3.8,2.6-5.7c2.1-4.6,4.2-9.3,6.4-13.9c0.3-0.7,0.6-1.4,0.9-2.1c0.1-0.3,0.2-0.7,0.6-0.7
		c0.4,0,0.5,0.3,0.7,0.6c1.7,3.9,3.4,7.8,5.1,11.7c1.4,3.2,2.9,6.4,4.3,9.6c0,0.1,0.1,0.2,0.1,0.3c-0.9,0-1.7,0-2.6,0
		c-0.9,0-0.9,0-1.3-0.9c-0.9-2.3-1.8-4.6-2.7-6.9c-0.2-0.4-0.4-0.6-0.8-0.6c-1.7-0.1-3.4-0.1-5.2-0.2c-0.6,0-1.2,0.1-1.8,0.2
		c-0.4,0-0.6,0.3-0.7,0.6c-0.9,2.4-1.8,4.7-2.7,7.1c-0.2,0.5-0.4,0.7-1,0.7C80.8,31.6,80.2,31.7,79.5,31.7z M86.2,21.1
		c2.1,0.3,4.1,0.2,6.2,0c-1-2.4-2-4.7-3.1-7.1C88.3,16.4,87.3,18.8,86.2,21.1z"/>
	<path d="M190.4,31.6c-1.1,0-2.1,0-3.2,0c-0.3,0-0.3-0.2-0.4-0.4c-1-2.4-2-4.8-2.9-7.2c-0.2-0.6-0.6-0.8-1.2-0.8
		c-1.7,0-3.5-0.1-5.2-0.2c-0.5,0-1,0.1-1.5,0.1c-0.4,0-0.6,0.3-0.8,0.7c-1,2.5-1.9,5-2.9,7.5c0,0.1-0.2,0.2-0.2,0.2
		c-0.8,0-1.5,0-2.4,0c0.1-0.3,0.2-0.5,0.4-0.7c3.4-6.9,6.6-13.9,9.5-21c0.1-0.2,0.2-0.4,0.4-0.6c0.3-0.2,0.7,0,0.8,0.4
		c0.7,1.6,1.3,3.2,2,4.7c2.4,5.5,4.9,11,7.3,16.5C190.2,31.2,190.3,31.4,190.4,31.6z M179.6,14c-1.1,2.4-2.1,4.7-3.1,7.1
		c2.1,0.3,4.1,0.2,6.2,0C181.6,18.7,180.6,16.4,179.6,14z"/>
	<path d="M141,28c0,0.4,0,0.7-0.1,1.1c0,0.1-0.1,0.3,0,0.4c0.1,0.5-0.2,0.9-0.6,1.1c-3.8,1.8-7.8,2.1-11.8,0.6
		c-3.6-1.5-5.7-4.3-6.3-8.2c-0.4-3-0.1-5.8,1.4-8.4c1.8-3.2,4.7-4.9,8.3-5.5c3-0.4,6-0.1,8.8,1c0.7,0.3,0.8,0.4,0.5,1.1
		c-0.2,0.5-0.3,1-0.4,1.5c-0.2,0.5-0.4,0.6-0.8,0.2c-0.2-0.1-0.3-0.3-0.5-0.5c-3.3-3-7.9-2.4-10.3-0.6c-1.4,1-2.2,2.4-2.9,4
		c-1.4,3.6-1.3,7.2,0.6,10.6c1.4,2.6,3.7,4,6.6,4.1c2.6,0.1,4.9-0.6,6.9-2.3c0.1-0.1,0.2-0.2,0.4-0.3C140.8,28,140.8,28,141,28z"/>
	<path d="M52.1,13.1c-0.3-0.2-0.6-0.3-0.7-0.4C47.8,9.1,40.4,9,37.8,15.8c-1.3,3.4-1.3,6.9,0.3,10.2c1.2,2.4,3.1,4.1,5.9,4.5
		c2.9,0.4,5.6-0.3,7.9-2.2c0.1-0.1,0.3-0.2,0.5-0.4c0,0.4,0.1,0.7,0.1,1c0,0.3-0.1,0.6-0.1,0.9c0,0.4-0.3,0.6-0.6,0.8
		c-1.3,0.6-2.6,1.1-4,1.3c-2.2,0.3-4.3,0.3-6.5-0.3c-4.3-1.2-6.7-4.3-7.6-8.6c-0.4-2.1-0.2-4.1,0.4-6.1c1.2-4.3,4.9-7.4,9.4-7.9
		c3-0.4,5.9,0,8.8,1c0.6,0.2,0.7,0.3,0.5,1c-0.1,0.4-0.2,0.8-0.4,1.2C52.3,12.5,52.2,12.8,52.1,13.1z"/>
</g>
</svg>
